<?xml version="1.0" encoding="UTF-8"?>
<svg id="Layer_1" data-name="Layer 1" xmlns="http://www.w3.org/2000/svg" xmlns:xlink="http://www.w3.org/1999/xlink" viewBox="0 0 249.87 58.76">
  <defs>
    <style>
      .cls-1 {
        fill: #b17658;
      }

      .cls-2 {
        fill: #ebeae5;
      }

      .cls-3, .cls-4, .cls-5 {
        fill: none;
      }

      .cls-6 {
        fill: #7fb5a6;
      }

      .cls-4 {
        stroke: #827559;
      }

      .cls-4, .cls-5 {
        stroke-width: 2px;
      }

      .cls-5 {
        stroke: #9b5632;
      }

      .cls-7 {
        clip-path: url(#clippath);
      }

      .cls-8 {
        fill: #85350b;
      }
    </style>
    <clipPath id="clippath">
      <path class="cls-3" d="M50.02,43.85l12.77,12.7c.27.27.72.28,1,.02,3.35-3.15,7.48-6.11,6.37-10.81-.25-1.01-1.62-2.74-4.13-5.19-3.89-3.79-7.88-7.69-11.97-11.69.08-.36.3-.71.66-1.06,3.67-3.53,6.72-6.57,9.15-9.12,4.85-5.08,4.38-13.26-.06-18.52-.19-.22-.52-.25-.74-.06-.01,0-.02.02-.03.03l-20.14,20.14c-.44.44-.68,1.02-.68,1.64v13.9c0,.34.14.67.39.91l7.41,7.11ZM3.36,36.34l14.63,22.35c.02.05.08.08.13.06.05-.02.08-.08.06-.13-1.41-9.59-3.04-19.26-4.9-29.01-.26-1.37,0-2.68.77-3.95,2.4-3.94,5.7-4.95,9.89-3.03,1.39.64,2.29,1.43,2.71,2.38,5.18,11.73,8.75,19.81,10.72,24.24.05.11.12.17.21.19.11.02.22-.05.25-.17,0-.01,0-.03,0-.04.28-10.12.05-20.08-.68-29.87-.04-.47-.16-.81-.35-1.02C32.77,4.5,13.42.27,4.68,11.97c-5.77,7.73-6.21,15.86-1.32,24.37Z"/>
    </clipPath>
  </defs>
  <g class="cls-7">
    <g>
      <path class="cls-4" d="M54.06,28.88c-1.81,1.03-3.35,2.53-4.62,4.51-.19.29-.28.63-.27.97.02.74-.09,1.47-.34,2.19-.75,2.21.35,5.19,1.19,7.3" vector-effect="non-scaling-stroke"/>
      <path class="cls-5" d="M36.8,18.34c-.03.13-.07.25-.1.35-.07.21-.3.32-.5.25-.05-.02-.09-.04-.13-.07-1-.82-2.02-1.93-3.03-2.54-7.46-4.42-14.65-4.43-21.58-.04-.4.25-.76.55-1.09.9-4.59,4.82-6.93,11.2-7.01,19.15" vector-effect="non-scaling-stroke"/>
    </g>
  </g>
  <g>
    <path class="cls-8" d="M175.44,1.92c-2.66.15-2.07,4.5-2.05,6.17,0,.37.31.67.68.67,1.47,0,2.25.02,2.34.07.16.08.22.27.14.43-.05.09-.13.15-.23.17-.77.13-1.47.13-2.1,0-.38-.07-.75.17-.82.55,0,.04-.01.09-.01.13v15.49c0,.5.41.91.91.91.01,0,.02,0,.03,0,.31,0,.52.02.62.07.18.09.25.31.16.48-.06.12-.18.19-.32.2l-6.1-.07c-.16,0-.28-.12-.28-.28,0-.12.07-.22.18-.27l.8-.23c.29-.08.49-.34.48-.64l-.02-15.68c0-.23-.2-.4-.42-.4-.06,0-.12.02-.18.05-.07.03-.23.02-.5-.05-.27-.07-.44-.35-.37-.62.03-.1.08-.19.16-.26.11-.09.41-.07.9.06.22.06.44-.08.5-.3.01-.05.02-.11.01-.16-.56-4.1,1.74-7.22,5.76-7.27,1.25-.02,2.16.48,2.75,1.49.55.95.39,2.12-.39,2.79-.52.44-1.26.4-2.21-.11-.76-.41-1.09-1.32-.73-2.03.06-.12.14-.23.23-.33.17-.17.3-.33.4-.49.11-.16.06-.38-.1-.48-.06-.04-.14-.06-.22-.06Z"/>
    <path class="cls-8" d="M147.56,8.27V1.78c0-.26.21-.47.47-.47h2.33c.3,0,.55.25.55.55v6.46c0,.24.19.43.43.43h2.43c.08,0,.15.07.15.15v.26c0,.18-.14.32-.32.32h-2.06c-.34,0-.62.28-.62.62-.04,7.39-.02,12.36.07,14.92.03.76.65,1.42,1.38,1.47.57.04,1.06-.31,1.22-.86.04-.14.27-.28.7-.41.15-.04.3.04.35.19.02.07.01.15-.03.22-.65,1.11-1.32,1.71-2.03,1.81-3.37.49-5.05-1.03-5.04-4.57.04-6.77.04-11.01,0-12.72,0-.36-.29-.65-.65-.64-.02,0-.03,0-.05,0-.49.04-.85.02-1.07-.05-.17-.06-.25-.25-.19-.41.03-.08.09-.14.17-.18.23-.1.54-.09.94.04.35.11.73-.09.84-.44.02-.06.03-.13.03-.2Z"/>
    <path class="cls-8" d="M185.91,27.21h-6.35c-.09,0-.15-.09-.14-.18,0-.05.04-.1.08-.12l1.16-.46c.38-.16.63-.53.63-.94V2.68c0-.08-.02-.16-.07-.23-.27-.43-.81-.57-1.64-.4-.17.03-.32-.08-.36-.24h0c-.05-.16.03-.32.17-.37.02,0,.05-.01.08-.01l4.53-.17c.37-.02.68.27.7.64,0,.01,0,.02,0,.03v23.76c0,.06.03.12.07.16l1.2,1.21s.03.09,0,.13c-.01.01-.03.02-.05.02Z"/>
    <path class="cls-8" d="M162.73,4.12c0,.98-.79,1.77-1.77,1.77h0c-.98,0-1.77-.79-1.77-1.77h0c0-.98.79-1.77,1.77-1.77h0c.98,0,1.77.79,1.77,1.77h0Z"/>
    <path class="cls-8" d="M225.27,4.16c0,.97-.79,1.76-1.76,1.76h0c-.97,0-1.76-.79-1.76-1.76h0c0-.97.79-1.76,1.76-1.76h0c.97,0,1.76.79,1.76,1.76h0Z"/>
    <path class="cls-8" d="M36.8,18.34c-.03.13-.07.25-.1.35-.07.21-.3.32-.5.25-.05-.02-.09-.04-.13-.07-1-.82-2.02-1.93-3.03-2.54-7.46-4.42-14.65-4.43-21.58-.04-.4.25-.76.55-1.09.9-4.59,4.82-6.93,11.2-7.01,19.15C-1.52,27.83-1.08,19.71,4.68,11.97,13.42.27,32.77,4.5,36.8,18.34Z"/>
    <path class="cls-8" d="M121.05,27.21h-2.95c-.18,0-.33-.15-.33-.33.07-3.57.08-7.16.04-10.77-.03-2.37-.41-4.11-1.16-5.24-.19-.28-.44-.51-.72-.69-2.4-1.47-5-1.1-7.81,1.13-.43.34-.59.93-.38,1.44,1.54,3.76.97,9.55.85,13.06-.01.36.28.67.64.68,0,0,.01,0,.02,0h1.21s.06.02.06.04l.08.3c.04.17-.07.34-.23.38-.02,0-.05,0-.07,0h-4.34c-.36,0-.65-.29-.65-.65,0,0,0,0,0-.01.04-3.6.04-6.72.01-9.35-.04-3.12-.27-8.74-5.01-7.92-2.45.43-3.78,1.96-4,4.61-.29,3.61-.29,7.96,0,13.04.01.14-.1.27-.24.28,0,0-.01,0-.02,0h-3.16c-.12,0-.21-.09-.21-.2,0,0,0-.01,0-.02.25-3.52.32-6.52.2-9.01-.21-4.69,1.58-7.72,5.38-9.07,2.4-.86,5.13-.46,7,1.12,1.14.96,2.14,1.05,3.01.27,4.44-4.01,12.48-.88,12.66,5.13.11,3.66.21,7.52.3,11.58,0,.1-.09.19-.19.19Z"/>
    <path class="cls-8" d="M142.23,20.28c0,3.95-3.2,7.15-7.15,7.15h-1.24c-3.95,0-7.15-3.2-7.15-7.15h0v-4.46c0-3.95,3.2-7.15,7.15-7.15h1.24c3.95,0,7.15,3.2,7.15,7.15h0v4.46Z"/>
    <path class="cls-8" d="M210.96,26.22c-4.85,2.37-8.54,1.21-11.09-3.46-.52-.95-.71-3.16-.56-6.65.42-9.9,15.2-10.14,15.72-.22.16,3.01.13,6.15-.08,9.42-.02.35.13.69.4.9.27.22.66.39,1.19.51.15.04.24.2.2.34-.03.12-.14.2-.27.21l-3.85-.09c-.41-.01-.78-.25-.97-.61-.02-.03-.04-.07-.05-.1-.1-.24-.37-.36-.61-.26-.01,0-.02,0-.03.01Z"/>
    <path class="cls-8" d="M235.81,13.05v12.98c0,.28.22.5.49.5.05,0,.09,0,.14-.02.38-.11.74-.06,1.07.14.15.09.21.28.13.43-.06.11-.17.17-.3.17l-6.4-.12c-.13,0-.24-.1-.25-.23h0c0-.13.09-.22.21-.22h0c.38,0,.7-.06.96-.17.35-.15.58-.5.57-.89-.13-5.29-.1-8.76.11-10.41.32-2.53,1.69-4.44,4.11-5.71,3.47-1.84,6.72-1.28,9.73,1.69,2.72,2.68,1.97,9.38,1.94,14.47,0,.4.26.76.65.88l.71.21c.12.02.21.13.19.25s-.13.21-.25.19h-5.95c-.1,0-.19-.08-.2-.18,0-.07.03-.13.09-.17l.81-.57c.23-.16.36-.41.36-.69.05-4.33.06-7.73.05-10.19-.02-3.88-1.62-7.19-5.97-5.88-.81.25-1.73,1.15-2.76,2.72-.16.25-.24.53-.24.82Z"/>
    <path class="cls-8" d="M164.03,27.25l-6.47-.03c-.07,0-.12-.05-.12-.12v-.31c0-.12.1-.21.21-.21.02,0,.03,0,.05,0,.52.14.92.14,1.21-.01.34-.17.56-.52.56-.9v-15.5c-.01-.42-.35-.76-.77-.76h-1.13c-.12,0-.22-.1-.22-.22,0-.02,0-.03,0-.05.03-.16.12-.27.27-.32.02,0,.04,0,.05,0l4.46-.07c.32-.01.59.24.6.56,0,0,0,.01,0,.02v16.47c0,.43.35.78.78.79.43,0,.65.02.68.03.16.1.21.31.11.47-.06.1-.17.16-.28.16Z"/>
    <path class="cls-8" d="M226.78,26.57c.16.1.21.31.11.47-.06.1-.17.16-.28.16l-6.48-.02c-.07,0-.12-.05-.12-.12v-.31c0-.12.1-.21.21-.21.02,0,.03,0,.05,0,.52.14.92.14,1.21-.01.35-.17.56-.52.56-.91v-15.51c-.01-.42-.35-.76-.77-.76h-1.13c-.12,0-.22-.1-.22-.22,0-.02,0-.03,0-.05.03-.16.12-.27.27-.32.02,0,.04,0,.05,0l4.46-.07c.32-.01.59.24.6.56,0,0,0,.01,0,.02v16.48c0,.43.35.78.78.79.43,0,.66.02.69.03Z"/>
    <path class="cls-8" d="M189.23,26.89c.83-.54.97-1.17.42-1.89-1.23-1.59-2.69-3.71-4.38-6.36-.35-.54-.27-1.25.19-1.71l6.75-6.75c.05-.05.06-.14.03-.21-.19-.39-.56-.57-1.11-.55-.13,0-.23-.09-.24-.22,0,0,0,0,0-.01v-.32s.01-.03.03-.03h5.11c.13,0,.24.11.24.24v.57s-.02.04-.05.04c0,0-.01,0-.02,0-1.03-.59-2.23-.18-3.61,1.25-1.51,1.55-3.01,3.03-4.51,4.44-.37.36-.43.93-.13,1.35l6.37,9.12c.23.33.61.53,1.01.56.47.03.82.06,1.04.11.2.05.33.25.28.46-.04.17-.2.3-.37.29h-6.93c-.11,0-.21-.1-.21-.21,0-.06.03-.12.09-.16Z"/>
    <path class="cls-8" d="M54.06,28.88c4.09,4,8.08,7.9,11.97,11.69,2.51,2.45,3.88,4.18,4.13,5.19,1.11,4.7-3.02,7.66-6.37,10.81-.28.26-.73.25-1-.02l-12.77-12.7c-.84-2.11-1.94-5.09-1.19-7.3.25-.72.36-1.45.34-2.19-.01-.34.08-.68.27-.97,1.27-1.98,2.81-3.48,4.62-4.51Z"/>
    <path class="cls-8" d="M118.08,53.74c-.25,0-.47-.04-.68-.11-.35-.12-.58-.44-.58-.81v-4.92c0-.33-.06-.66-.18-.96l-2.91-7.91c-.08-.21.03-.44.23-.51.04-.02.09-.02.14-.03h1.6c.37,0,.68.27.74.63.23,1.47.75,3.21,1.55,5.23.04.09.09.14.15.14.06,0,.11-.05.15-.14.83-2.01,1.37-3.74,1.62-5.21.06-.36.38-.63.75-.62l1.6.02c.22,0,.4.19.39.41,0,.05-.01.1-.03.14l-3.01,7.87c-.12.3-.19.63-.19.96l-.07,4.92c0,.36-.24.69-.59.8-.21.07-.44.1-.68.1Z"/>
    <path class="cls-8" d="M144.89,51.49h3.36c.48,0,.89.34.96.81l.05.26c.09.57-.29,1.11-.86,1.21-.05,0-.11.01-.16.01l-5.48.02c-.75,0-1.36-.59-1.36-1.34,0-.31.1-.61.29-.85,1.54-1.95,6.11-7.32,5.27-10.25-.21-.72-.97-1.13-1.69-.92-.4.12-.73.42-.88.81l-.45,1.18c-.21.58-.86.88-1.44.66-.43-.16-.72-.56-.73-1.01-.2-4.38,6.46-5.45,7.5-.74.75,3.39-2.19,6.64-4.64,9.59-.12.14-.1.36.04.48.06.05.14.08.22.08Z"/>
    <path class="cls-8" d="M161.72,38.5c1.32-.01,2.47,0,3.44.03.45.02.81.38.81.83v.51c0,.41-.33.74-.74.74h-1.82c-.3,0-.55.24-.55.54v11.88c0,.35-.26.64-.6.69-.15.02-.32.03-.53.03-.21,0-.39,0-.54-.03-.34-.05-.6-.34-.6-.69v-11.88c0-.3-.25-.54-.55-.54h-1.82c-.41,0-.74-.33-.74-.74v-.51c0-.44.35-.81.8-.83.97-.03,2.12-.04,3.44-.03Z"/>
    <path class="cls-8" d="M182.38,49.99c0,2.19-1.77,3.97-3.96,3.98h-.48c-2.19,0-3.97-1.77-3.98-3.96v-7.74c-.02-2.19,1.76-3.97,3.95-3.98h.48c2.19,0,3.97,1.77,3.98,3.96h0v7.74Z"/>
    <path class="cls-8" d="M210.84,50.16c0,2.09-1.7,3.79-3.8,3.78h-.68c-2.09,0-3.79-1.7-3.78-3.8v-8.08c.02-2.09,1.72-3.79,3.81-3.78h.68c2.09,0,3.79,1.7,3.78,3.8v8.08Z"/>
    <path class="cls-8" d="M222.54,44.47v8.74c0,.3-.24.54-.54.54h-1.2c-.35,0-.64-.28-.64-.63h0v-13.38c0-.78.62-1.43,1.4-1.44.59,0,1.12.35,1.34.9l3.21,7.93c.03.1.14.15.24.12.08-.03.13-.1.13-.19v-8.04c0-.3.25-.55.56-.55h1.07c.31,0,.57.26.57.57v13.72c0,.65-.54,1.17-1.19,1.17-.47,0-.9-.29-1.08-.73l-3.57-8.79c-.04-.08-.14-.11-.22-.06-.05.03-.08.07-.08.12Z"/>
    <path class="cls-8" d="M238.1,53.31v-14.37c0-.24.2-.44.44-.44h6c.24,0,.44.2.44.44h0v1.24c0,.24-.2.44-.44.44h-3.73c-.24,0-.44.2-.44.44h0v3.13c0,.24.2.44.44.44h2.5c.24,0,.44.2.44.44h0v1.4c0,.24-.2.44-.44.44h-2.48c-.24,0-.44.2-.44.44h0v3.65c0,.24.2.44.44.44h3.67c.24,0,.44.2.44.44h0v1.43c0,.24-.2.44-.44.44h-5.96c-.24,0-.44-.2-.44-.44h0Z"/>
    <path class="cls-8" d="M102.87,46.15s.33.11.95.29c.27.08.49.29.65.63,1.14,2.45.65,4.52-1.46,6.23-.33.27-.74.41-1.17.41h-4.69c-.25,0-.45-.2-.45-.44h0v-14.12c0-.31.24-.57.55-.6,2.47-.22,4.42-.04,5.83.55.4.17.72.46.93.83,1.27,2.27.9,4.12-1.1,5.55-.19.15-.23.42-.09.62.01.02.03.04.05.05Z"/>
    <path class="cls-8" d="M193.72,53.22c0,.33-.28.59-.61.59h0l-1.2-.02c-.33,0-.59-.28-.59-.61h0s.03-1.44.03-1.44c0-.33.28-.59.61-.59h0l1.2.02c.33,0,.59.28.59.61l-.03,1.44Z"/>
  </g>
  <path class="cls-1" d="M36.8,18.34c.19.21.31.55.35,1.02.73,9.79.96,19.75.68,29.87,0,.12-.09.21-.21.21-.01,0-.03,0-.04,0-.09-.02-.16-.08-.21-.19-1.97-4.43-5.54-12.51-10.72-24.24-.42-.95-1.32-1.74-2.71-2.38-4.19-1.92-7.49-.91-9.89,3.03-.77,1.27-1.03,2.58-.77,3.95,1.86,9.75,3.49,19.42,4.9,29.01.02.05,0,.11-.06.13s-.11,0-.13-.06L3.36,36.34c.08-7.95,2.42-14.33,7.01-19.15.33-.35.69-.65,1.09-.9,6.93-4.39,14.12-4.38,21.58.04,1.01.61,2.03,1.72,3.03,2.54.16.14.41.12.55-.05.03-.04.06-.08.08-.13.03-.1.07-.22.1-.35Z"/>
  <path class="cls-6" d="M54.06,28.88c-1.81,1.03-3.35,2.53-4.62,4.51-.19.29-.28.63-.27.97.02.74-.09,1.47-.34,2.19-.75,2.21.35,5.19,1.19,7.3l-7.41-7.11c-.25-.24-.39-.57-.39-.91v-13.9c0-.62.24-1.21.68-1.64L63.04.15c.2-.21.53-.21.74,0,0,0,.02.02.03.03,4.44,5.26,4.91,13.44.06,18.52-2.43,2.55-5.48,5.59-9.15,9.12-.36.35-.58.7-.66,1.06Z"/>
  <g>
    <path class="cls-2" d="M138.97,22.43c0,2.35-1.9,4.25-4.25,4.25h-.5c-2.35,0-4.25-1.9-4.25-4.25h0v-8.8c0-2.35,1.9-4.25,4.25-4.25h.5c2.35,0,4.25,1.9,4.25,4.25h0v8.8Z"/>
    <path class="cls-2" d="M211.7,22.48c0,2.34-1.88,4.25-4.23,4.25h-.48c-2.34,0-4.25-1.88-4.25-4.22h0s-.03-8.92-.03-8.92c0-2.34,1.88-4.25,4.23-4.25h.48c2.34,0,4.25,1.88,4.25,4.22h0s.03,8.92.03,8.92Z"/>
    <path class="cls-2" d="M180.03,49.83c0,.96-.78,1.73-1.74,1.72h-.16c-.96,0-1.73-.78-1.72-1.74l.04-7.54c0-.96.78-1.73,1.74-1.72h.16c.96,0,1.73.78,1.72,1.74l-.04,7.54Z"/>
    <path class="cls-2" d="M208.47,49.86c0,.92-.75,1.67-1.67,1.67h-.16c-.92,0-1.67-.75-1.67-1.67v-7.66c0-.92.75-1.67,1.67-1.67h.16c.92,0,1.67.75,1.67,1.67h0v7.66Z"/>
    <path class="cls-2" d="M99.06,41.22c.01-.34.29-.6.63-.59h0l.46.02c1.26.05,2.25.88,2.22,1.87v.3c-.04.99-1.09,1.75-2.36,1.71,0,0,0,0,0,0l-.46-.02c-.34-.01-.6-.29-.59-.63,0,0,0,0,0,0l.1-2.66Z"/>
    <path class="cls-2" d="M99.12,47.5c.02-.36.33-.64.7-.62,0,0,0,0,0,0l.45.02c1.4.08,2.47,1.08,2.41,2.25h0s-.02.38-.02.38c-.06,1.16-1.24,2.05-2.64,1.97,0,0,0,0-.01,0l-.45-.03c-.36-.02-.64-.33-.62-.69l.18-3.28Z"/>
  </g>
</svg>